<?xml version="1.0" encoding="UTF-8" ?>
<!DOCTYPE svg PUBLIC "-//W3C//DTD SVG 1.1//EN" "http://www.w3.org/Graphics/SVG/1.1/DTD/svg11.dtd">
<svg width="900pt" height="900pt" viewBox="0 0 900 900" version="1.1" xmlns="http://www.w3.org/2000/svg">
<g id="#000000ff">
<path fill="#000000" opacity="1.00" d=" M 0.00 0.00 L 900.00 0.00 L 900.00 900.00 L 0.00 900.00 L 0.00 0.00 M 379.47 245.42 C 355.99 260.05 339.51 283.79 329.33 309.14 C 317.80 337.94 313.53 369.11 312.60 399.95 C 311.97 426.31 313.19 452.80 317.70 478.81 C 320.87 496.69 325.57 514.41 333.05 531.00 C 334.62 527.65 336.42 524.41 338.06 521.10 C 339.77 517.90 337.75 514.40 338.06 511.04 C 338.78 501.73 340.80 492.59 341.97 483.33 C 339.62 479.54 338.44 474.25 340.90 470.26 C 340.42 469.85 339.48 469.05 339.01 468.65 C 339.20 465.00 339.67 459.53 344.60 459.65 C 344.41 448.90 341.29 438.38 342.14 427.59 C 342.65 428.03 343.65 428.92 344.16 429.37 C 342.64 425.36 347.12 425.09 349.67 423.97 C 346.11 423.44 342.61 422.60 339.13 421.69 C 338.36 417.07 339.59 412.49 340.15 407.93 C 341.01 401.58 341.31 395.17 341.63 388.78 C 345.37 388.02 349.24 388.22 352.98 387.42 C 354.33 387.37 354.83 386.68 354.46 385.34 C 353.41 375.22 353.24 364.68 356.89 355.03 C 359.81 346.80 365.39 338.81 373.82 335.61 C 378.26 334.17 383.89 333.34 387.47 337.07 C 387.97 336.58 388.97 335.60 389.47 335.12 C 385.08 325.84 387.12 314.31 393.60 306.53 C 397.79 301.31 404.36 298.42 410.95 298.00 C 416.36 297.80 421.46 300.12 425.83 303.12 C 428.08 304.74 431.03 305.36 433.02 307.30 C 434.03 314.13 437.72 320.86 435.44 327.90 C 434.73 331.52 430.44 331.88 427.59 332.93 C 427.78 335.88 428.07 338.83 428.46 341.77 C 433.51 341.83 438.06 339.30 443.04 338.82 C 443.70 335.96 443.87 332.84 445.55 330.35 C 446.18 332.42 446.51 334.57 446.69 336.73 C 447.96 337.06 449.24 337.40 450.53 337.73 C 450.58 338.27 450.67 339.34 450.72 339.87 C 473.37 339.88 496.03 339.80 518.68 339.92 C 518.66 340.70 518.60 342.27 518.57 343.06 C 519.05 343.07 520.02 343.10 520.50 343.11 C 520.56 339.01 520.39 334.91 520.57 330.82 C 521.22 330.73 522.52 330.55 523.16 330.46 C 523.54 334.50 521.79 339.28 524.82 342.60 C 525.39 342.15 526.53 341.24 527.09 340.79 C 527.56 342.71 527.57 344.71 527.43 346.68 C 532.98 346.87 538.55 347.03 544.11 346.77 C 545.60 346.84 546.90 346.11 548.15 345.39 C 551.79 346.70 555.70 346.12 559.50 346.26 C 559.46 347.80 559.42 349.33 559.40 350.88 C 555.67 350.72 551.95 351.25 548.24 351.18 C 543.72 349.07 538.71 350.37 533.94 349.92 C 529.05 349.59 524.15 352.46 519.42 350.22 C 519.13 351.52 519.53 353.32 518.06 354.02 C 509.69 354.25 501.31 354.02 492.93 354.10 C 491.08 353.94 489.53 355.08 487.93 355.82 C 486.18 359.59 482.88 362.20 479.64 364.64 C 479.69 370.30 481.53 375.69 482.67 381.17 C 480.51 382.14 476.75 381.90 476.63 385.05 C 475.52 389.37 475.63 394.14 473.17 398.01 C 471.05 400.67 467.96 402.31 465.55 404.68 C 463.42 406.95 460.13 407.26 457.75 409.14 C 457.48 408.71 456.93 407.85 456.66 407.42 C 446.37 406.19 437.55 400.42 428.63 395.62 C 428.12 397.97 427.56 400.31 426.90 402.64 C 430.14 403.85 433.40 406.21 433.81 409.92 C 434.84 417.95 432.65 425.92 432.65 433.95 C 432.77 438.40 430.84 442.67 428.20 446.15 C 425.86 448.05 422.77 446.05 420.24 445.57 C 419.73 446.66 419.23 447.75 418.73 448.86 C 419.66 452.99 419.67 457.81 423.21 460.76 C 434.84 473.34 441.02 489.58 446.92 505.37 C 447.34 506.98 449.03 507.53 450.26 508.41 C 450.40 511.13 450.57 513.97 452.46 516.13 C 452.88 527.17 451.59 538.19 449.83 549.07 C 448.79 554.10 451.46 559.03 450.55 564.08 C 450.44 567.26 447.73 569.71 447.90 572.95 C 447.84 577.33 447.66 581.74 448.12 586.11 C 448.48 590.69 452.50 593.60 455.10 597.00 C 457.53 600.17 460.74 602.94 464.87 603.41 C 490.81 600.36 515.35 587.21 532.29 567.33 C 555.00 541.06 566.20 506.91 571.42 473.08 C 575.07 449.25 575.97 425.07 575.24 401.00 C 574.33 374.30 571.03 347.48 562.87 321.96 C 554.37 295.36 539.88 269.76 517.51 252.45 C 498.10 237.22 473.44 229.94 449.01 229.03 C 424.95 227.82 400.04 232.41 379.47 245.42 M 78.75 238.78 C 78.75 357.85 78.75 476.93 78.75 596.00 C 127.20 596.00 175.65 596.00 224.09 596.00 C 224.09 568.44 224.09 540.87 224.09 513.31 C 202.69 513.31 181.28 513.31 159.88 513.31 C 159.87 421.80 159.88 330.29 159.87 238.78 C 132.83 238.78 105.79 238.78 78.75 238.78 M 628.00 238.78 C 628.00 265.99 628.00 293.20 628.00 320.41 C 646.46 320.42 664.92 320.39 683.38 320.42 C 683.37 412.28 683.39 504.14 683.37 595.99 C 710.77 596.00 738.17 596.00 765.56 596.00 C 765.55 504.14 765.57 412.28 765.55 320.42 C 784.20 320.39 802.85 320.41 821.50 320.41 C 821.51 293.20 821.51 265.99 821.50 238.78 C 757.00 238.78 692.50 238.78 628.00 238.78 M 458.98 359.92 C 459.15 360.58 459.48 361.90 459.65 362.56 C 457.12 363.84 454.63 365.20 452.39 366.94 C 453.98 369.90 455.57 372.85 456.96 375.92 C 461.18 372.37 463.42 367.30 466.68 363.00 C 466.26 361.26 465.83 359.53 465.37 357.81 C 463.02 357.87 460.59 358.00 458.98 359.92 M 380.07 493.03 C 375.37 497.83 374.06 504.64 371.50 510.62 C 369.88 514.28 370.33 518.44 368.98 522.18 C 368.14 524.50 365.62 525.43 364.05 527.16 C 362.58 529.58 361.86 532.57 359.52 534.37 C 355.46 537.49 353.17 543.06 354.30 548.10 C 354.75 552.67 352.19 556.82 350.56 560.93 C 357.84 570.41 366.50 578.88 376.42 585.58 C 390.54 595.21 407.04 601.03 423.92 603.39 C 424.48 600.28 425.05 597.15 426.20 594.20 C 429.24 587.42 426.19 579.96 426.68 572.87 C 426.00 572.18 425.32 571.51 424.64 570.84 C 424.71 566.05 422.30 561.70 422.02 556.96 C 421.61 551.29 420.84 545.64 420.50 539.98 C 420.32 537.49 422.32 535.72 423.39 533.69 C 423.85 530.49 424.02 527.25 424.45 524.05 C 423.47 522.44 422.44 520.87 421.37 519.34 C 417.86 520.20 413.41 520.22 411.06 517.00 C 405.67 509.29 400.58 501.37 395.17 493.66 C 393.20 493.44 391.03 493.83 389.22 492.86 C 386.85 490.75 385.87 487.59 384.28 484.94 C 383.09 487.73 382.33 490.85 380.07 493.03 M 270.17 516.21 C 257.46 518.43 246.46 527.04 240.00 538.03 C 234.26 547.86 233.02 559.95 235.61 570.94 C 238.18 581.79 245.43 591.19 254.63 597.33 C 264.44 603.88 276.99 605.74 288.43 603.26 C 300.16 600.64 310.17 592.64 316.78 582.79 C 323.75 572.41 325.48 558.91 321.98 546.98 C 318.94 536.70 311.64 528.03 302.74 522.24 C 293.21 516.04 281.26 514.22 270.17 516.21 M 596.19 516.20 C 576.26 519.77 560.19 538.69 560.34 559.03 C 559.84 571.82 565.41 584.53 575.02 592.96 C 585.96 603.31 602.47 606.76 616.83 602.64 C 627.54 599.53 636.59 591.98 642.76 582.82 C 649.74 572.44 651.48 558.92 647.98 546.98 C 644.94 536.70 637.64 528.03 628.75 522.24 C 619.22 516.04 607.28 514.23 596.19 516.20 M 142.14 625.09 C 138.42 630.96 137.69 638.14 137.68 644.94 C 137.81 651.87 138.83 659.23 143.06 664.96 C 149.92 674.67 166.93 674.57 173.23 664.30 C 177.65 657.56 176.71 649.16 176.80 641.51 C 170.70 641.49 164.61 641.50 158.52 641.50 C 158.52 644.86 158.51 648.22 158.52 651.58 C 160.39 651.55 162.27 651.55 164.15 651.54 C 163.83 654.04 163.70 656.91 161.65 658.69 C 158.80 661.06 153.88 659.95 152.52 656.43 C 150.12 650.61 150.68 644.06 151.08 637.92 C 151.43 634.36 152.60 629.26 157.02 629.08 C 160.30 628.58 161.97 631.77 163.50 634.05 C 167.37 632.44 171.24 630.85 175.09 629.22 C 173.95 627.00 172.87 624.73 171.25 622.82 C 164.05 613.81 148.05 615.41 142.14 625.09 M 314.53 619.52 C 308.22 623.61 306.45 632.57 309.61 639.17 C 312.62 645.33 318.73 648.93 323.47 653.58 C 325.62 655.47 324.69 659.44 321.88 660.12 C 317.68 661.23 313.70 658.81 310.10 656.95 C 310.15 661.22 310.11 665.49 310.15 669.76 C 316.85 672.79 325.40 673.20 331.46 668.52 C 336.20 665.05 338.28 658.70 336.97 653.04 C 336.06 648.39 332.62 644.88 329.29 641.77 C 326.48 639.14 322.79 637.29 320.84 633.85 C 319.59 631.96 320.80 629.24 323.01 628.86 C 326.86 627.83 330.56 629.95 333.92 631.56 C 333.91 627.41 333.92 623.27 333.91 619.12 C 327.82 616.61 320.28 615.71 314.53 619.52 M 375.48 617.67 C 367.18 620.05 362.99 628.88 362.14 636.87 C 361.17 646.14 361.45 656.29 366.52 664.44 C 372.53 674.20 388.71 674.77 395.40 665.48 C 400.16 659.08 401.03 650.74 400.92 643.01 C 400.77 635.60 399.41 627.54 394.10 621.98 C 389.41 617.03 381.84 616.03 375.48 617.67 M 502.39 617.56 C 494.10 619.66 489.71 628.30 488.72 636.20 C 487.64 645.57 487.85 655.84 492.84 664.16 C 498.67 674.09 514.93 674.88 521.77 665.65 C 526.85 658.96 527.61 650.12 527.40 642.00 C 527.13 634.81 525.62 627.03 520.37 621.75 C 515.76 617.08 508.55 616.12 502.39 617.56 M 606.43 617.69 C 598.17 620.08 594.00 628.89 593.14 636.85 C 592.17 646.13 592.45 656.31 597.53 664.46 C 603.55 674.20 619.69 674.77 626.39 665.50 C 631.15 659.09 632.03 650.75 631.92 643.02 C 631.77 635.59 630.41 627.50 625.07 621.95 C 620.36 617.01 612.78 616.03 606.43 617.69 M 733.36 617.57 C 725.10 619.68 720.72 628.28 719.73 636.16 C 718.64 645.54 718.84 655.82 723.83 664.15 C 729.65 674.07 745.86 674.88 752.73 665.70 C 757.83 659.02 758.61 650.18 758.40 642.06 C 758.14 634.83 756.63 626.97 751.30 621.69 C 746.69 617.06 739.49 616.13 733.36 617.57 M 78.10 618.01 C 78.11 635.69 78.10 653.38 78.11 671.07 C 85.36 671.07 92.62 671.07 99.87 671.07 C 99.87 667.04 99.87 663.02 99.88 659.01 C 96.70 658.99 93.52 659.00 90.34 659.00 C 90.35 645.33 90.34 631.67 90.35 618.00 C 86.26 618.00 82.18 617.99 78.10 618.01 M 107.12 618.01 C 107.14 635.69 107.12 653.38 107.13 671.07 C 115.34 671.07 123.55 671.07 131.76 671.07 C 131.76 667.20 131.77 663.35 131.76 659.49 C 127.62 659.50 123.48 659.49 119.34 659.51 C 119.32 656.52 119.32 653.54 119.33 650.56 C 122.88 650.57 126.43 650.56 129.98 650.57 C 129.98 646.71 129.98 642.85 129.98 639.00 C 126.43 639.00 122.87 639.00 119.31 638.99 C 119.32 635.84 119.32 632.70 119.33 629.56 C 123.44 629.57 127.55 629.57 131.66 629.57 C 131.66 625.71 131.66 621.86 131.67 618.01 C 123.49 617.99 115.31 618.00 107.12 618.01 M 184.63 618.00 C 184.63 635.69 184.63 653.38 184.63 671.07 C 192.84 671.07 201.05 671.07 209.26 671.07 C 209.27 667.21 209.27 663.35 209.27 659.50 C 205.12 659.49 200.97 659.50 196.82 659.50 C 196.82 656.52 196.82 653.54 196.82 650.57 C 200.37 650.56 203.93 650.57 207.48 650.57 C 207.48 646.71 207.48 642.85 207.48 639.00 C 203.93 638.99 200.37 639.00 196.82 639.00 C 196.82 635.85 196.82 632.71 196.82 629.57 C 200.93 629.56 205.04 629.57 209.16 629.57 C 209.17 625.71 209.16 621.85 209.16 618.00 C 200.98 618.00 192.81 618.00 184.63 618.00 M 218.10 618.01 C 218.11 635.69 218.10 653.38 218.11 671.07 C 222.18 671.07 226.25 671.07 230.32 671.07 C 230.21 661.14 230.60 651.20 230.02 641.29 C 235.01 651.20 239.90 661.16 244.88 671.07 C 249.05 671.07 253.21 671.07 257.37 671.07 C 257.37 653.38 257.37 635.69 257.37 618.00 C 253.31 618.00 249.24 617.99 245.17 618.01 C 245.41 628.09 244.68 638.21 245.64 648.27 C 240.59 638.20 235.51 628.15 230.53 618.04 C 226.38 617.97 222.24 618.00 218.10 618.01 M 267.63 618.00 C 267.63 635.69 267.63 653.38 267.63 671.07 C 276.23 670.82 285.70 672.37 293.31 667.34 C 300.94 662.37 303.03 652.56 302.90 644.03 C 303.01 635.77 300.70 626.43 293.37 621.67 C 285.77 616.54 276.23 618.31 267.63 618.00 M 409.10 618.00 C 409.11 635.69 409.10 653.38 409.11 671.07 C 413.18 671.07 417.26 671.07 421.34 671.07 C 421.35 664.23 421.34 657.40 421.35 650.56 C 424.96 650.57 428.58 650.57 432.20 650.57 C 432.20 646.71 432.20 642.85 432.20 639.00 C 428.58 639.00 424.96 639.00 421.34 638.99 C 421.35 635.84 421.34 632.70 421.36 629.56 C 425.45 629.57 429.56 629.57 433.66 629.57 C 433.66 625.71 433.66 621.86 433.67 618.01 C 425.48 617.99 417.29 618.00 409.10 618.00 M 455.63 618.00 C 455.62 622.02 455.62 626.04 455.63 630.07 C 458.38 630.07 461.13 630.07 463.88 630.07 C 463.86 643.74 463.88 657.40 463.88 671.07 C 468.00 671.07 472.13 671.07 476.27 671.07 C 476.26 657.40 476.28 643.74 476.26 630.08 C 479.00 630.06 481.75 630.07 484.50 630.06 C 484.50 626.04 484.50 622.02 484.50 618.00 C 474.88 618.00 465.25 618.00 455.63 618.00 M 538.97 618.00 C 537.06 635.69 535.16 653.38 533.26 671.07 C 537.10 671.07 540.95 671.07 544.79 671.07 C 545.83 659.01 546.85 646.95 547.88 634.90 C 550.37 646.94 553.03 658.95 555.53 670.99 C 558.31 671.08 561.08 671.07 563.87 671.07 C 566.32 658.98 568.85 646.91 571.22 634.80 C 572.20 646.89 573.38 658.97 574.38 671.07 C 578.41 671.07 582.44 671.07 586.48 671.07 C 584.46 653.39 582.44 635.71 580.43 618.04 C 575.19 617.96 569.96 618.01 564.73 618.00 C 562.81 627.65 560.83 637.30 559.44 647.05 C 557.92 637.33 556.21 627.63 554.30 617.98 C 549.19 618.02 544.08 617.99 538.97 618.00 M 640.12 618.01 C 640.14 635.69 640.12 653.38 640.13 671.07 C 644.19 671.07 648.25 671.07 652.32 671.07 C 652.33 663.03 652.30 655.00 652.34 646.97 C 655.61 655.00 658.85 663.04 662.12 671.07 C 666.42 671.07 670.72 671.07 675.03 671.07 C 671.82 663.19 668.68 655.28 665.43 647.42 C 674.87 642.12 675.16 626.68 665.99 620.99 C 658.26 616.13 648.71 618.61 640.12 618.01 M 680.63 618.00 C 680.63 635.69 680.62 653.38 680.63 671.07 C 684.69 671.07 688.75 671.07 692.82 671.07 C 692.84 663.12 692.76 655.18 692.87 647.25 C 696.28 655.13 699.32 663.17 702.67 671.09 C 706.95 671.05 711.24 671.07 715.53 671.07 C 712.34 663.19 709.16 655.30 705.95 647.43 C 715.23 642.16 715.69 627.05 706.81 621.20 C 699.07 616.06 689.32 618.62 680.63 618.00 M 761.22 618.00 C 765.46 635.69 769.71 653.37 773.93 671.07 C 777.57 671.07 781.20 671.07 784.85 671.07 C 787.01 660.60 789.71 650.23 791.26 639.65 C 793.12 650.18 795.60 660.60 797.77 671.07 C 801.46 671.07 805.16 671.07 808.86 671.07 C 813.10 653.39 817.29 635.69 821.51 618.00 C 817.48 617.99 813.46 618.00 809.45 618.00 C 807.25 628.38 805.33 638.82 802.92 649.15 C 800.73 638.79 798.77 628.38 796.70 618.00 C 793.12 618.00 789.55 618.00 785.98 618.00 C 783.92 628.70 781.83 639.39 779.79 650.09 C 777.55 639.39 775.23 628.70 772.96 618.01 C 769.04 617.99 765.13 618.00 761.22 618.00 Z" />
<path fill="#000000" opacity="1.00" d=" M 652.34 627.95 C 654.92 628.36 658.28 628.58 659.49 631.37 C 660.37 633.68 660.71 636.73 658.96 638.74 C 657.28 640.60 654.61 640.63 652.34 641.03 C 652.31 636.67 652.31 632.30 652.34 627.95 Z" />
<path fill="#000000" opacity="1.00" d=" M 692.83 627.94 C 695.32 628.38 698.58 628.52 699.86 631.14 C 700.97 633.59 701.28 637.04 699.15 639.05 C 697.44 640.63 694.98 640.63 692.83 641.04 C 692.81 636.67 692.81 632.30 692.83 627.94 Z" />
<path fill="#000000" opacity="1.00" d=" M 379.32 629.40 C 381.79 628.35 384.70 629.77 385.81 632.12 C 388.23 637.03 387.90 642.70 387.79 648.02 C 387.50 651.66 387.47 655.95 384.58 658.63 C 382.03 660.99 377.46 659.99 376.25 656.69 C 374.21 651.43 374.64 645.59 374.76 640.06 C 375.15 636.30 375.47 631.32 379.32 629.40 Z" />
<path fill="#000000" opacity="1.00" d=" M 505.42 629.58 C 507.84 628.30 510.97 629.50 512.18 631.89 C 514.63 636.49 514.37 641.95 514.34 647.01 C 514.05 650.86 514.19 655.31 511.40 658.34 C 509.06 660.87 504.39 660.28 502.94 657.08 C 500.72 652.05 501.19 646.33 501.21 640.96 C 501.53 636.99 501.72 631.97 505.42 629.58 Z" />
<path fill="#000000" opacity="1.00" d=" M 610.27 629.41 C 612.78 628.32 615.75 629.79 616.85 632.20 C 619.22 637.10 618.90 642.75 618.79 648.05 C 618.50 651.66 618.46 655.91 615.62 658.59 C 613.09 660.99 608.49 660.02 607.26 656.71 C 605.22 651.46 605.64 645.64 605.76 640.12 C 606.15 636.35 606.45 631.38 610.27 629.41 Z" />
<path fill="#000000" opacity="1.00" d=" M 736.42 629.58 C 738.85 628.29 742.01 629.52 743.20 631.94 C 745.62 636.51 745.37 641.92 745.34 646.95 C 745.05 650.82 745.20 655.32 742.37 658.37 C 740.04 660.85 735.43 660.28 733.97 657.13 C 731.71 652.11 732.19 646.37 732.21 641.00 C 732.53 637.03 732.71 631.98 736.42 629.58 Z" />
<path fill="#000000" opacity="1.00" d=" M 279.85 629.31 C 283.38 629.42 286.96 631.12 288.15 634.66 C 290.22 640.70 290.25 647.52 288.43 653.63 C 287.31 657.38 283.42 659.05 279.85 659.54 C 279.83 649.46 279.84 639.38 279.85 629.31 Z" />
</g>
<g id="#ffffffff">
<path fill="#ffffff" opacity="1.00" d=" M 379.47 245.42 C 400.04 232.41 424.95 227.82 449.01 229.03 C 473.44 229.94 498.10 237.22 517.51 252.45 C 539.88 269.76 554.37 295.36 562.87 321.96 C 571.03 347.48 574.33 374.30 575.24 401.00 C 575.97 425.07 575.07 449.25 571.42 473.08 C 566.20 506.91 555.00 541.06 532.29 567.33 C 515.35 587.21 490.81 600.36 464.87 603.41 C 460.74 602.94 457.53 600.17 455.10 597.00 C 452.50 593.60 448.48 590.69 448.12 586.11 C 447.66 581.74 447.84 577.33 447.90 572.95 C 447.73 569.71 450.44 567.26 450.55 564.08 C 451.46 559.03 448.79 554.10 449.83 549.07 C 451.59 538.19 452.88 527.17 452.46 516.13 C 450.57 513.97 450.40 511.13 450.26 508.41 C 449.03 507.53 447.34 506.98 446.92 505.37 C 441.02 489.58 434.84 473.34 423.21 460.76 C 419.67 457.81 419.66 452.99 418.73 448.86 C 419.23 447.75 419.73 446.66 420.24 445.57 C 422.77 446.05 425.86 448.05 428.20 446.15 C 430.84 442.67 432.77 438.40 432.65 433.95 C 432.65 425.92 434.84 417.95 433.81 409.92 C 433.40 406.21 430.14 403.85 426.90 402.64 C 427.56 400.31 428.12 397.97 428.63 395.62 C 437.55 400.42 446.37 406.19 456.66 407.42 C 456.93 407.85 457.48 408.71 457.75 409.14 C 460.13 407.26 463.42 406.95 465.55 404.68 C 467.96 402.31 471.05 400.67 473.17 398.01 C 475.63 394.14 475.52 389.37 476.63 385.05 C 476.75 381.90 480.51 382.14 482.67 381.17 C 481.53 375.69 479.69 370.30 479.64 364.64 C 482.88 362.20 486.18 359.59 487.93 355.82 C 489.53 355.08 491.08 353.94 492.93 354.10 C 501.31 354.02 509.69 354.25 518.06 354.02 C 519.53 353.32 519.13 351.52 519.42 350.22 C 524.15 352.46 529.05 349.59 533.94 349.92 C 538.71 350.37 543.72 349.07 548.24 351.18 C 551.95 351.25 555.67 350.72 559.40 350.88 C 559.42 349.33 559.46 347.80 559.50 346.26 C 555.70 346.12 551.79 346.70 548.15 345.39 C 546.90 346.11 545.60 346.84 544.11 346.77 C 538.55 347.03 532.98 346.87 527.43 346.68 C 527.57 344.71 527.56 342.71 527.09 340.79 C 526.53 341.24 525.39 342.15 524.82 342.60 C 521.79 339.28 523.54 334.50 523.16 330.46 C 522.52 330.55 521.22 330.73 520.57 330.82 C 520.39 334.91 520.56 339.01 520.50 343.11 C 520.02 343.10 519.05 343.07 518.57 343.06 C 518.60 342.27 518.66 340.70 518.68 339.92 C 496.03 339.80 473.37 339.88 450.72 339.87 C 450.67 339.34 450.58 338.27 450.53 337.73 C 449.24 337.40 447.96 337.06 446.69 336.73 C 446.51 334.57 446.18 332.42 445.55 330.35 C 443.87 332.84 443.70 335.96 443.04 338.82 C 438.06 339.30 433.51 341.83 428.46 341.77 C 428.07 338.83 427.78 335.88 427.59 332.93 C 430.44 331.88 434.73 331.52 435.44 327.90 C 437.72 320.86 434.03 314.13 433.02 307.30 C 431.03 305.36 428.08 304.74 425.83 303.12 C 421.46 300.12 416.36 297.80 410.95 298.00 C 404.36 298.42 397.79 301.31 393.60 306.53 C 387.12 314.31 385.08 325.84 389.47 335.12 C 388.97 335.60 387.97 336.58 387.47 337.07 C 383.89 333.34 378.26 334.17 373.82 335.61 C 365.39 338.81 359.81 346.80 356.89 355.03 C 353.24 364.68 353.41 375.22 354.46 385.34 C 354.83 386.68 354.33 387.37 352.98 387.42 C 349.24 388.22 345.37 388.02 341.63 388.78 C 341.31 395.17 341.01 401.58 340.15 407.93 C 339.59 412.49 338.36 417.07 339.13 421.69 C 342.61 422.60 346.11 423.44 349.67 423.97 C 347.12 425.09 342.64 425.36 344.16 429.37 C 343.65 428.92 342.65 428.03 342.14 427.59 C 341.29 438.38 344.41 448.90 344.60 459.65 C 339.67 459.53 339.20 465.00 339.01 468.65 C 339.48 469.05 340.42 469.85 340.90 470.26 C 338.44 474.25 339.62 479.54 341.97 483.33 C 340.80 492.59 338.78 501.73 338.06 511.04 C 337.75 514.40 339.77 517.90 338.06 521.10 C 336.42 524.41 334.62 527.65 333.05 531.00 C 325.57 514.41 320.87 496.69 317.70 478.81 C 313.19 452.80 311.97 426.31 312.60 399.95 C 313.53 369.11 317.80 337.94 329.33 309.14 C 339.51 283.79 355.99 260.05 379.47 245.42 Z" />
<path fill="#ffffff" opacity="1.00" d=" M 78.75 238.78 C 105.79 238.78 132.83 238.78 159.87 238.78 C 159.88 330.29 159.87 421.80 159.88 513.31 C 181.28 513.31 202.69 513.31 224.09 513.31 C 224.09 540.87 224.09 568.44 224.09 596.00 C 175.65 596.00 127.20 596.00 78.75 596.00 C 78.75 476.93 78.75 357.85 78.75 238.78 Z" />
<path fill="#ffffff" opacity="1.00" d=" M 628.00 238.78 C 692.50 238.78 757.00 238.78 821.50 238.78 C 821.51 265.99 821.51 293.20 821.50 320.41 C 802.85 320.41 784.20 320.39 765.55 320.42 C 765.57 412.28 765.55 504.14 765.56 596.00 C 738.17 596.00 710.77 596.00 683.37 595.99 C 683.39 504.14 683.37 412.28 683.38 320.42 C 664.92 320.39 646.46 320.42 628.00 320.41 C 628.00 293.20 628.00 265.99 628.00 238.78 Z" />
<path fill="#ffffff" opacity="1.00" d=" M 458.98 359.92 C 460.59 358.00 463.02 357.87 465.37 357.81 C 465.83 359.53 466.26 361.26 466.68 363.00 C 463.42 367.30 461.18 372.37 456.96 375.92 C 455.57 372.85 453.98 369.90 452.39 366.94 C 454.63 365.20 457.12 363.84 459.65 362.56 C 459.48 361.90 459.15 360.58 458.98 359.92 Z" />
<path fill="#ffffff" opacity="1.00" d=" M 380.07 493.03 C 382.33 490.85 383.09 487.73 384.28 484.94 C 385.87 487.59 386.85 490.75 389.22 492.86 C 391.03 493.83 393.20 493.44 395.17 493.66 C 400.58 501.37 405.67 509.29 411.06 517.00 C 413.41 520.22 417.86 520.20 421.37 519.34 C 422.44 520.87 423.47 522.44 424.45 524.05 C 424.02 527.25 423.85 530.49 423.39 533.69 C 422.32 535.72 420.32 537.49 420.50 539.98 C 420.84 545.64 421.61 551.29 422.02 556.96 C 422.30 561.70 424.71 566.05 424.64 570.84 C 425.32 571.51 426.00 572.18 426.68 572.87 C 426.19 579.96 429.24 587.42 426.20 594.20 C 425.05 597.15 424.48 600.28 423.92 603.39 C 407.04 601.03 390.54 595.21 376.42 585.58 C 366.50 578.88 357.84 570.41 350.56 560.93 C 352.19 556.82 354.75 552.67 354.30 548.10 C 353.17 543.06 355.46 537.49 359.52 534.37 C 361.86 532.57 362.58 529.58 364.05 527.16 C 365.62 525.43 368.14 524.50 368.98 522.18 C 370.33 518.44 369.88 514.28 371.50 510.62 C 374.06 504.64 375.37 497.83 380.07 493.03 Z" />
<path fill="#ffffff" opacity="1.00" d=" M 270.17 516.21 C 281.26 514.22 293.21 516.04 302.74 522.24 C 311.64 528.03 318.94 536.70 321.98 546.98 C 325.48 558.91 323.75 572.41 316.78 582.79 C 310.17 592.64 300.16 600.64 288.43 603.26 C 276.99 605.74 264.44 603.88 254.63 597.33 C 245.43 591.19 238.18 581.79 235.61 570.94 C 233.02 559.95 234.26 547.86 240.00 538.03 C 246.46 527.04 257.46 518.43 270.17 516.21 Z" />
<path fill="#ffffff" opacity="1.00" d=" M 596.19 516.20 C 607.28 514.23 619.22 516.04 628.75 522.24 C 637.64 528.03 644.94 536.70 647.98 546.98 C 651.48 558.92 649.74 572.44 642.76 582.82 C 636.59 591.98 627.54 599.53 616.83 602.64 C 602.47 606.76 585.96 603.31 575.02 592.96 C 565.41 584.53 559.84 571.82 560.34 559.03 C 560.19 538.69 576.26 519.77 596.19 516.20 Z" />
<path fill="#ffffff" opacity="1.00" d=" M 142.14 625.09 C 148.05 615.41 164.05 613.81 171.25 622.82 C 172.87 624.73 173.95 627.00 175.09 629.22 C 171.24 630.85 167.37 632.44 163.50 634.05 C 161.97 631.77 160.30 628.58 157.02 629.08 C 152.60 629.26 151.43 634.36 151.08 637.92 C 150.68 644.06 150.12 650.61 152.52 656.43 C 153.88 659.95 158.80 661.06 161.65 658.69 C 163.70 656.91 163.83 654.04 164.15 651.54 C 162.27 651.55 160.39 651.55 158.52 651.58 C 158.51 648.22 158.52 644.86 158.52 641.50 C 164.61 641.50 170.70 641.49 176.80 641.51 C 176.71 649.16 177.65 657.56 173.23 664.30 C 166.93 674.57 149.92 674.67 143.06 664.96 C 138.83 659.23 137.81 651.87 137.68 644.94 C 137.69 638.14 138.42 630.96 142.14 625.09 Z" />
<path fill="#ffffff" opacity="1.00" d=" M 314.53 619.52 C 320.28 615.71 327.82 616.61 333.91 619.12 C 333.92 623.27 333.91 627.41 333.92 631.56 C 330.56 629.95 326.86 627.83 323.01 628.86 C 320.80 629.24 319.59 631.96 320.84 633.85 C 322.79 637.29 326.48 639.14 329.29 641.77 C 332.62 644.88 336.06 648.39 336.97 653.04 C 338.28 658.70 336.20 665.05 331.46 668.52 C 325.40 673.20 316.85 672.79 310.15 669.76 C 310.11 665.49 310.15 661.22 310.10 656.95 C 313.70 658.81 317.68 661.23 321.88 660.12 C 324.69 659.44 325.62 655.47 323.47 653.58 C 318.73 648.93 312.62 645.33 309.61 639.17 C 306.45 632.57 308.22 623.61 314.53 619.52 Z" />
<path fill="#ffffff" opacity="1.00" d=" M 375.48 617.67 C 381.84 616.03 389.41 617.03 394.10 621.98 C 399.41 627.54 400.77 635.60 400.92 643.01 C 401.03 650.74 400.16 659.08 395.40 665.48 C 388.71 674.77 372.53 674.20 366.52 664.44 C 361.45 656.29 361.17 646.14 362.14 636.87 C 362.99 628.88 367.18 620.05 375.48 617.67 M 379.32 629.40 C 375.47 631.32 375.15 636.30 374.76 640.06 C 374.64 645.59 374.21 651.43 376.25 656.69 C 377.46 659.99 382.03 660.99 384.58 658.63 C 387.47 655.95 387.50 651.66 387.79 648.02 C 387.90 642.70 388.23 637.03 385.81 632.12 C 384.70 629.77 381.79 628.35 379.32 629.40 Z" />
<path fill="#ffffff" opacity="1.00" d=" M 502.39 617.56 C 508.55 616.12 515.76 617.08 520.37 621.75 C 525.62 627.03 527.13 634.81 527.40 642.00 C 527.61 650.12 526.85 658.96 521.77 665.65 C 514.93 674.88 498.67 674.09 492.84 664.16 C 487.85 655.84 487.64 645.57 488.72 636.20 C 489.71 628.30 494.10 619.66 502.39 617.56 M 505.42 629.58 C 501.72 631.97 501.53 636.99 501.21 640.96 C 501.19 646.33 500.72 652.05 502.94 657.08 C 504.39 660.28 509.06 660.87 511.40 658.34 C 514.19 655.31 514.05 650.86 514.34 647.01 C 514.37 641.95 514.63 636.49 512.18 631.89 C 510.97 629.50 507.84 628.30 505.42 629.58 Z" />
<path fill="#ffffff" opacity="1.00" d=" M 606.43 617.69 C 612.78 616.03 620.36 617.01 625.07 621.95 C 630.41 627.50 631.77 635.59 631.92 643.02 C 632.03 650.75 631.15 659.09 626.39 665.50 C 619.69 674.77 603.55 674.20 597.53 664.46 C 592.45 656.31 592.17 646.13 593.14 636.85 C 594.00 628.89 598.17 620.08 606.43 617.69 M 610.27 629.41 C 606.45 631.38 606.15 636.35 605.76 640.12 C 605.64 645.64 605.22 651.46 607.26 656.71 C 608.49 660.02 613.09 660.99 615.62 658.59 C 618.46 655.91 618.50 651.66 618.79 648.05 C 618.90 642.75 619.22 637.10 616.85 632.20 C 615.75 629.79 612.78 628.32 610.27 629.41 Z" />
<path fill="#ffffff" opacity="1.00" d=" M 733.36 617.57 C 739.49 616.13 746.69 617.06 751.30 621.69 C 756.63 626.97 758.14 634.83 758.40 642.06 C 758.61 650.18 757.83 659.02 752.73 665.70 C 745.86 674.88 729.65 674.07 723.83 664.15 C 718.84 655.82 718.64 645.54 719.73 636.16 C 720.72 628.28 725.10 619.68 733.36 617.57 M 736.42 629.58 C 732.71 631.98 732.53 637.03 732.21 641.00 C 732.19 646.37 731.71 652.11 733.97 657.13 C 735.43 660.28 740.04 660.85 742.37 658.37 C 745.20 655.32 745.05 650.82 745.34 646.95 C 745.37 641.92 745.62 636.51 743.20 631.94 C 742.01 629.52 738.85 628.29 736.42 629.58 Z" />
<path fill="#ffffff" opacity="1.00" d=" M 78.10 618.01 C 82.18 617.99 86.26 618.00 90.35 618.00 C 90.34 631.67 90.35 645.33 90.34 659.00 C 93.52 659.00 96.70 658.99 99.88 659.01 C 99.87 663.02 99.87 667.04 99.87 671.07 C 92.62 671.07 85.36 671.07 78.11 671.07 C 78.10 653.38 78.11 635.69 78.10 618.01 Z" />
<path fill="#ffffff" opacity="1.00" d=" M 107.12 618.01 C 115.31 618.00 123.49 617.99 131.67 618.01 C 131.66 621.86 131.66 625.71 131.66 629.57 C 127.55 629.57 123.44 629.57 119.33 629.56 C 119.32 632.70 119.32 635.84 119.31 638.99 C 122.87 639.00 126.43 639.00 129.98 639.00 C 129.98 642.85 129.98 646.71 129.98 650.57 C 126.43 650.56 122.88 650.57 119.33 650.56 C 119.32 653.54 119.32 656.52 119.34 659.51 C 123.48 659.49 127.62 659.50 131.76 659.49 C 131.77 663.35 131.76 667.20 131.76 671.07 C 123.55 671.07 115.34 671.07 107.13 671.07 C 107.12 653.38 107.14 635.69 107.12 618.01 Z" />
<path fill="#ffffff" opacity="1.00" d=" M 184.63 618.00 C 192.81 618.00 200.98 618.00 209.16 618.00 C 209.16 621.85 209.17 625.71 209.16 629.57 C 205.04 629.57 200.93 629.56 196.82 629.57 C 196.82 632.71 196.82 635.85 196.82 639.00 C 200.37 639.00 203.93 638.99 207.48 639.00 C 207.48 642.85 207.48 646.71 207.48 650.57 C 203.93 650.57 200.37 650.56 196.82 650.57 C 196.82 653.54 196.82 656.52 196.82 659.50 C 200.97 659.50 205.12 659.49 209.27 659.50 C 209.27 663.35 209.27 667.21 209.26 671.07 C 201.05 671.07 192.84 671.07 184.63 671.07 C 184.63 653.38 184.63 635.69 184.63 618.00 Z" />
<path fill="#ffffff" opacity="1.00" d=" M 218.10 618.01 C 222.24 618.00 226.38 617.97 230.53 618.04 C 235.51 628.15 240.59 638.20 245.64 648.27 C 244.68 638.21 245.41 628.09 245.17 618.01 C 249.24 617.99 253.31 618.00 257.37 618.00 C 257.37 635.69 257.37 653.38 257.37 671.07 C 253.21 671.07 249.05 671.07 244.88 671.07 C 239.90 661.16 235.01 651.20 230.02 641.29 C 230.60 651.20 230.21 661.14 230.32 671.07 C 226.25 671.07 222.18 671.07 218.11 671.07 C 218.10 653.38 218.11 635.69 218.10 618.01 Z" />
<path fill="#ffffff" opacity="1.00" d=" M 267.63 618.00 C 276.23 618.31 285.77 616.54 293.37 621.67 C 300.70 626.43 303.01 635.77 302.90 644.03 C 303.03 652.56 300.94 662.37 293.31 667.34 C 285.70 672.37 276.23 670.82 267.63 671.07 C 267.63 653.38 267.63 635.69 267.63 618.00 M 279.85 629.31 C 279.84 639.38 279.83 649.46 279.85 659.54 C 283.42 659.05 287.31 657.38 288.43 653.63 C 290.25 647.52 290.22 640.70 288.15 634.66 C 286.96 631.12 283.38 629.42 279.85 629.31 Z" />
<path fill="#ffffff" opacity="1.00" d=" M 409.10 618.00 C 417.29 618.00 425.48 617.99 433.67 618.01 C 433.66 621.86 433.66 625.71 433.66 629.57 C 429.56 629.57 425.45 629.57 421.36 629.56 C 421.34 632.70 421.35 635.84 421.34 638.99 C 424.96 639.00 428.58 639.00 432.20 639.00 C 432.20 642.85 432.20 646.71 432.20 650.57 C 428.58 650.57 424.96 650.57 421.35 650.56 C 421.34 657.40 421.35 664.23 421.34 671.07 C 417.26 671.07 413.18 671.07 409.11 671.07 C 409.10 653.38 409.11 635.69 409.10 618.00 Z" />
<path fill="#ffffff" opacity="1.00" d=" M 455.63 618.00 C 465.25 618.00 474.88 618.00 484.50 618.00 C 484.50 622.02 484.50 626.04 484.50 630.06 C 481.75 630.07 479.00 630.06 476.26 630.08 C 476.28 643.74 476.26 657.40 476.27 671.07 C 472.13 671.07 468.00 671.07 463.88 671.07 C 463.88 657.40 463.86 643.74 463.88 630.07 C 461.13 630.07 458.38 630.07 455.63 630.07 C 455.62 626.04 455.62 622.02 455.63 618.00 Z" />
<path fill="#ffffff" opacity="1.00" d=" M 538.97 618.00 C 544.08 617.99 549.19 618.02 554.30 617.98 C 556.21 627.63 557.92 637.33 559.44 647.05 C 560.83 637.30 562.81 627.65 564.73 618.00 C 569.96 618.01 575.19 617.96 580.43 618.04 C 582.44 635.71 584.46 653.39 586.48 671.07 C 582.44 671.07 578.41 671.07 574.38 671.07 C 573.38 658.97 572.20 646.89 571.22 634.80 C 568.85 646.91 566.32 658.98 563.87 671.07 C 561.08 671.07 558.31 671.08 555.53 670.99 C 553.03 658.95 550.37 646.94 547.88 634.90 C 546.85 646.95 545.83 659.01 544.79 671.07 C 540.95 671.07 537.10 671.07 533.26 671.07 C 535.16 653.38 537.06 635.69 538.97 618.00 Z" />
<path fill="#ffffff" opacity="1.00" d=" M 640.12 618.01 C 648.71 618.61 658.26 616.13 665.99 620.99 C 675.16 626.68 674.87 642.12 665.43 647.42 C 668.68 655.28 671.82 663.19 675.03 671.07 C 670.72 671.07 666.42 671.07 662.12 671.07 C 658.85 663.04 655.61 655.00 652.34 646.97 C 652.30 655.00 652.33 663.03 652.32 671.07 C 648.25 671.07 644.19 671.07 640.13 671.07 C 640.12 653.38 640.14 635.69 640.12 618.01 M 652.34 627.95 C 652.31 632.30 652.31 636.67 652.34 641.03 C 654.61 640.63 657.28 640.60 658.96 638.74 C 660.71 636.73 660.37 633.68 659.49 631.37 C 658.28 628.58 654.92 628.36 652.34 627.95 Z" />
<path fill="#ffffff" opacity="1.00" d=" M 680.63 618.00 C 689.32 618.62 699.07 616.06 706.81 621.20 C 715.69 627.05 715.23 642.16 705.95 647.43 C 709.16 655.30 712.34 663.19 715.53 671.07 C 711.24 671.07 706.95 671.05 702.67 671.09 C 699.32 663.17 696.28 655.13 692.87 647.25 C 692.76 655.18 692.84 663.12 692.82 671.07 C 688.75 671.07 684.69 671.07 680.63 671.07 C 680.62 653.38 680.63 635.69 680.63 618.00 M 692.83 627.94 C 692.81 632.30 692.81 636.67 692.83 641.04 C 694.98 640.63 697.44 640.63 699.15 639.05 C 701.28 637.04 700.97 633.59 699.86 631.14 C 698.58 628.52 695.32 628.38 692.83 627.94 Z" />
<path fill="#ffffff" opacity="1.00" d=" M 761.22 618.00 C 765.13 618.00 769.04 617.99 772.96 618.01 C 775.23 628.70 777.55 639.39 779.79 650.09 C 781.83 639.39 783.92 628.70 785.98 618.00 C 789.55 618.00 793.12 618.00 796.70 618.00 C 798.77 628.38 800.73 638.79 802.92 649.15 C 805.33 638.82 807.25 628.38 809.45 618.00 C 813.46 618.00 817.48 617.99 821.51 618.00 C 817.29 635.69 813.10 653.39 808.86 671.07 C 805.16 671.07 801.46 671.07 797.77 671.07 C 795.60 660.60 793.12 650.18 791.26 639.65 C 789.71 650.23 787.01 660.60 784.85 671.07 C 781.20 671.07 777.57 671.07 773.93 671.07 C 769.71 653.37 765.46 635.69 761.22 618.00 Z" />
</g>
</svg>
